<svg width="105" height="39" viewBox="0 0 105 39" fill="none" xmlns="http://www.w3.org/2000/svg">
<path d="M4.32911 5.20278C6.58987 5.20278 8.51392 6.47339 9.47595 8.3793C10.438 6.47339 12.362 5.20278 14.6228 5.20278C16.3544 5.20278 17.8937 5.98469 19 7.20643C18.8076 6.76661 18.5671 6.32678 18.3266 5.93582C16.9797 3.73669 14.719 2.02626 12.2177 1.34209C12.1215 1.34209 12.0734 1.29322 11.9772 1.29322C11.7848 1.24435 11.5924 1.19548 11.3519 1.14661C11.1114 1.09774 10.919 1.04887 10.6785 1.04887C10.5823 1.04887 10.4861 1.04887 10.3899 1C10.1013 1 9.76456 1 9.47595 1C9.13924 1 8.85063 1 8.56203 1.04887C8.46582 1.04887 8.41772 1.04887 8.32152 1.04887C8.03291 1.09774 7.7443 1.14661 7.4557 1.19548C7.35949 1.19548 7.26329 1.24435 7.11899 1.29322C6.97468 1.34209 6.78228 1.39096 6.63797 1.43983C4.18481 2.124 1.97215 3.78556 0.673418 5.98469C0.432911 6.37565 0.192405 6.76661 0 7.20643C1.05823 5.98469 2.59747 5.20278 4.32911 5.20278Z" fill="#5F30E2"/>
<path d="M5.64082 11.0355C5.64082 11.9919 4.83077 12.8011 3.87343 12.8011C2.9161 12.8011 2.17969 11.9919 2.17969 11.0355C2.17969 10.0792 2.98974 9.26993 3.94707 9.26993C4.90441 9.26993 5.64082 10.0792 5.64082 11.0355Z" fill="#212A39"/>
<path d="M11.7579 14.7896L10.3588 13.3919C10.1378 13.1712 9.76963 13.1712 9.54871 13.3919L8.14953 14.7896C8.00224 14.9368 7.9286 15.231 8.07589 15.4517L9.47507 17.953C9.69599 18.3208 10.2851 18.3208 10.4324 17.953L11.8316 15.4517C11.9052 15.231 11.9052 14.9368 11.7579 14.7896Z" fill="#212A39"/>
<path d="M17.4298 11.0355C17.4298 11.9919 16.6197 12.8011 15.6624 12.8011C14.7051 12.8011 13.895 11.9919 13.895 11.0355C13.895 10.0792 14.7051 9.26993 15.6624 9.26993C16.6197 9.26993 17.4298 10.0792 17.4298 11.0355Z" fill="#212A39"/>
<path d="M29.7608 15.7342C28.9075 15.7342 28.1661 15.6643 27.5366 15.5244C26.9071 15.3845 26.3546 15.1607 25.879 14.8529C25.6692 14.727 25.5083 14.5592 25.3964 14.3493C25.2845 14.1395 25.2285 13.9017 25.2285 13.6359C25.2285 13.3142 25.3194 13.0484 25.5013 12.8386C25.6831 12.6148 25.907 12.5028 26.1727 12.5028C26.3546 12.5028 26.5364 12.5378 26.7183 12.6078C26.9001 12.6637 27.089 12.7337 27.2848 12.8176C27.6765 12.9994 28.0612 13.1463 28.4389 13.2582C28.8166 13.3562 29.2852 13.4051 29.8447 13.4051C30.3343 13.4051 30.712 13.3282 30.9778 13.1743C31.2576 13.0204 31.3975 12.8106 31.3975 12.5448C31.3975 12.349 31.3345 12.1951 31.2086 12.0832C31.0967 11.9573 30.8799 11.8454 30.5582 11.7475C30.2364 11.6495 29.7258 11.5306 29.0264 11.3908C27.7814 11.153 26.8862 10.7962 26.3406 10.3206C25.7951 9.84502 25.5223 9.18056 25.5223 8.32726C25.5223 7.69778 25.7111 7.13124 26.0888 6.62765C26.4805 6.12406 27.0121 5.73238 27.6835 5.45261C28.355 5.15885 29.1103 5.01197 29.9497 5.01197C30.5512 5.01197 31.1387 5.08891 31.7122 5.24278C32.2858 5.39666 32.7963 5.61348 33.244 5.89325C33.6776 6.15903 33.8944 6.55071 33.8944 7.06829C33.8944 7.40402 33.8035 7.68379 33.6217 7.9076C33.4398 8.13142 33.216 8.24333 32.9502 8.24333C32.6285 8.24333 32.2438 8.11743 31.7962 7.86564C31.4464 7.68379 31.1247 7.5509 30.8309 7.46696C30.5512 7.36904 30.2154 7.32008 29.8238 7.32008C29.3901 7.32008 29.0474 7.40402 28.7956 7.57188C28.5438 7.72575 28.4179 7.94258 28.4179 8.22235C28.4179 8.51611 28.5648 8.73992 28.8586 8.8938C29.1523 9.04767 29.7188 9.20155 30.5582 9.35542C31.4954 9.53727 32.2298 9.76109 32.7614 10.0269C33.2929 10.2787 33.6776 10.6004 33.9154 10.9921C34.1532 11.3838 34.2721 11.8804 34.2721 12.4819C34.2721 13.4751 33.8595 14.2654 33.0341 14.8529C32.2228 15.4404 31.1317 15.7342 29.7608 15.7342Z" fill="#5F30E2"/>
<path d="M41.3942 13.3841C41.8138 13.4121 42.1216 13.517 42.3174 13.6989C42.5133 13.8807 42.6112 14.1465 42.6112 14.4962C42.6112 14.9019 42.4503 15.2096 42.1286 15.4195C41.8068 15.6293 41.3452 15.7132 40.7437 15.6713L40.1562 15.6293C37.7082 15.4335 36.4842 14.1535 36.4842 11.7894V7.63483H35.6449C35.1832 7.63483 34.8335 7.53691 34.5957 7.34107C34.3579 7.13124 34.239 6.83748 34.239 6.45979C34.239 6.06811 34.3579 5.77435 34.5957 5.57851C34.8335 5.36868 35.1832 5.26376 35.6449 5.26376H36.4842V3.6271C36.4842 3.16548 36.6241 2.80177 36.9038 2.53599C37.1976 2.27021 37.5893 2.13732 38.0789 2.13732C38.5685 2.13732 38.9532 2.27021 39.2329 2.53599C39.5127 2.80177 39.6526 3.16548 39.6526 3.6271V5.26376H41.1214C42.0726 5.26376 42.5482 5.66244 42.5482 6.45979C42.5482 6.83748 42.4293 7.13124 42.1915 7.34107C41.9537 7.53691 41.597 7.63483 41.1214 7.63483H39.6526V12.0202C39.6526 12.4399 39.7505 12.7616 39.9464 12.9855C40.1422 13.1953 40.429 13.3142 40.8066 13.3422L41.3942 13.3841Z" fill="#5F30E2"/>
<path d="M51.7958 5.05394C52.2854 5.05394 52.67 5.18683 52.9498 5.45261C53.2436 5.71839 53.3905 6.0821 53.3905 6.54372V14.2444C53.3905 14.6781 53.2366 15.0278 52.9288 15.2936C52.6351 15.5594 52.2504 15.6922 51.7748 15.6922C51.3271 15.6922 50.9704 15.5663 50.7047 15.3146C50.4389 15.0628 50.306 14.727 50.306 14.3074V14.0975C49.9842 14.6291 49.5576 15.0348 49.026 15.3146C48.5084 15.5943 47.9209 15.7342 47.2635 15.7342C45.9625 15.7342 44.9903 15.3775 44.3468 14.6641C43.7174 13.9367 43.4026 12.8456 43.4026 11.3908V6.54372C43.4026 6.0821 43.5425 5.71839 43.8223 5.45261C44.116 5.18683 44.5077 5.05394 44.9973 5.05394C45.4869 5.05394 45.8716 5.18683 46.1514 5.45261C46.4311 5.71839 46.571 6.0821 46.571 6.54372V11.4537C46.571 12.0692 46.6969 12.5238 46.9487 12.8176C47.2145 13.1114 47.6132 13.2582 48.1447 13.2582C48.7602 13.2582 49.2568 13.0484 49.6345 12.6287C50.0262 12.2091 50.222 11.6565 50.222 10.9711V6.54372C50.222 6.0821 50.3619 5.71839 50.6417 5.45261C50.9215 5.18683 51.3062 5.05394 51.7958 5.05394Z" fill="#5F30E2"/>
<path d="M64.2988 0.668518C64.7884 0.668518 65.18 0.801409 65.4738 1.06719C65.7815 1.33298 65.9354 1.68269 65.9354 2.11634V14.2025C65.9354 14.6501 65.7885 15.0138 65.4948 15.2936C65.215 15.5594 64.8373 15.6922 64.3617 15.6922C63.8861 15.6922 63.5014 15.5594 63.2076 15.2936C62.9279 15.0138 62.788 14.6501 62.788 14.2025V14.0346C62.4802 14.5662 62.0396 14.9858 61.4661 15.2936C60.9065 15.5873 60.2701 15.7342 59.5566 15.7342C58.6754 15.7342 57.885 15.5104 57.1856 15.0628C56.5001 14.6011 55.9616 13.9647 55.5699 13.1533C55.1922 12.328 55.0034 11.3838 55.0034 10.3206C55.0034 9.2575 55.1922 8.32726 55.5699 7.52991C55.9616 6.71858 56.5001 6.09608 57.1856 5.66244C57.871 5.22879 58.6614 5.01197 59.5566 5.01197C60.2561 5.01197 60.8855 5.15885 61.4451 5.45261C62.0186 5.74637 62.4593 6.15903 62.767 6.6906V2.05339C62.767 1.63373 62.9069 1.298 63.1867 1.04621C63.4664 0.794415 63.8371 0.668518 64.2988 0.668518ZM60.4799 13.3212C61.2213 13.3212 61.7878 13.0694 62.1795 12.5658C62.5852 12.0482 62.788 11.3138 62.788 10.3626C62.788 9.41138 62.5852 8.68397 62.1795 8.18038C61.7878 7.67679 61.2213 7.425 60.4799 7.425C59.7385 7.425 59.165 7.67679 58.7593 8.18038C58.3536 8.66998 58.1508 9.3834 58.1508 10.3206C58.1508 11.2719 58.3536 12.0133 58.7593 12.5448C59.165 13.0624 59.7385 13.3212 60.4799 13.3212Z" fill="#5F30E2"/>
<path d="M76.3278 12.5028C76.6076 12.5028 76.8314 12.6148 76.9993 12.8386C77.1811 13.0624 77.2721 13.3492 77.2721 13.6989C77.2721 13.9367 77.2021 14.1605 77.0622 14.3703C76.9224 14.5662 76.7265 14.734 76.4747 14.8739C75.9991 15.1257 75.4466 15.3355 74.8171 15.5034C74.1876 15.6573 73.6071 15.7342 73.0755 15.7342C71.9564 15.7342 70.9772 15.5174 70.1379 15.0837C69.3126 14.6501 68.6761 14.0346 68.2285 13.2373C67.7808 12.4259 67.557 11.4747 67.557 10.3836C67.557 9.33444 67.7738 8.4042 68.2075 7.59286C68.6411 6.78152 69.2426 6.15204 70.012 5.7044C70.7814 5.24278 71.6557 5.01197 72.6349 5.01197C73.5721 5.01197 74.3904 5.2218 75.0898 5.64146C75.8033 6.04712 76.3558 6.63464 76.7475 7.40402C77.1392 8.1594 77.335 9.04767 77.335 10.0688C77.335 10.3766 77.2581 10.6144 77.1042 10.7823C76.9643 10.9361 76.7615 11.0131 76.4957 11.0131H70.6205C70.7184 11.8384 70.9702 12.4399 71.3759 12.8176C71.7816 13.1813 72.3621 13.3631 73.1175 13.3631C73.5231 13.3631 73.8868 13.3142 74.2086 13.2163C74.5303 13.1183 74.887 12.9855 75.2787 12.8176C75.4745 12.7337 75.6634 12.6637 75.8452 12.6078C76.0271 12.5378 76.188 12.5028 76.3278 12.5028ZM72.7188 7.19419C72.1173 7.19419 71.6347 7.39003 71.271 7.78171C70.9073 8.1594 70.6904 8.71195 70.6205 9.43935H74.6702C74.6282 8.69796 74.4394 8.13842 74.1037 7.76072C73.7819 7.38303 73.3203 7.19419 72.7188 7.19419Z" fill="#5F30E2"/>
<path d="M85.3967 5.01197C86.6277 5.01197 87.5439 5.37567 88.1454 6.10308C88.747 6.8165 89.0477 7.90061 89.0477 9.35542V14.2025C89.0477 14.6641 88.9008 15.0278 88.6071 15.2936C88.3273 15.5594 87.9426 15.6922 87.453 15.6922C86.9634 15.6922 86.5787 15.5594 86.299 15.2936C86.0192 15.0278 85.8793 14.6641 85.8793 14.2025V9.5023C85.8793 8.80287 85.7464 8.29229 85.4806 7.97055C85.2288 7.64882 84.8302 7.48795 84.2846 7.48795C83.6271 7.48795 83.0956 7.69778 82.6899 8.11743C82.2982 8.53709 82.1024 9.09663 82.1024 9.79606V14.2025C82.1024 14.6641 81.9625 15.0278 81.6827 15.2936C81.403 15.5594 81.0183 15.6922 80.5287 15.6922C80.0391 15.6922 79.6474 15.5594 79.3536 15.2936C79.0739 15.0278 78.934 14.6641 78.934 14.2025V6.50175C78.934 6.06811 79.0809 5.71839 79.3746 5.45261C79.6824 5.18683 80.074 5.05394 80.5497 5.05394C80.9833 5.05394 81.333 5.18683 81.5988 5.45261C81.8786 5.7044 82.0185 6.03314 82.0185 6.4388V6.73256C82.3822 6.17302 82.8508 5.74637 83.4243 5.45261C84.0118 5.15885 84.6693 5.01197 85.3967 5.01197Z" fill="#5F30E2"/>
<path d="M96.8266 13.3841C97.2463 13.4121 97.554 13.517 97.7499 13.6989C97.9457 13.8807 98.0436 14.1465 98.0436 14.4962C98.0436 14.9019 97.8828 15.2096 97.561 15.4195C97.2393 15.6293 96.7777 15.7132 96.1761 15.6713L95.5886 15.6293C93.1406 15.4335 91.9166 14.1535 91.9166 11.7894V7.63483H91.0773C90.6157 7.63483 90.266 7.53691 90.0282 7.34107C89.7904 7.13124 89.6715 6.83748 89.6715 6.45979C89.6715 6.06811 89.7904 5.77435 90.0282 5.57851C90.266 5.36868 90.6157 5.26376 91.0773 5.26376H91.9166V3.6271C91.9166 3.16548 92.0565 2.80177 92.3363 2.53599C92.6301 2.27021 93.0217 2.13732 93.5113 2.13732C94.0009 2.13732 94.3856 2.27021 94.6654 2.53599C94.9452 2.80177 95.085 3.16548 95.085 3.6271V5.26376H96.5538C97.5051 5.26376 97.9807 5.66244 97.9807 6.45979C97.9807 6.83748 97.8618 7.13124 97.624 7.34107C97.3862 7.53691 97.0294 7.63483 96.5538 7.63483H95.085V12.0202C95.085 12.4399 95.183 12.7616 95.3788 12.9855C95.5746 13.1953 95.8614 13.3142 96.2391 13.3422L96.8266 13.3841Z" fill="#5F30E2"/>
<path d="M30.3693 24.4937C31.2646 24.4937 32.0549 24.7106 32.7404 25.1442C33.4258 25.5778 33.9574 26.1933 34.3351 26.9907C34.7128 27.788 34.9016 28.7113 34.9016 29.7604C34.9016 30.8236 34.7128 31.7608 34.3351 32.5721C33.9574 33.3695 33.4258 33.992 32.7404 34.4396C32.0549 34.8872 31.2646 35.1111 30.3693 35.1111C29.572 35.1111 28.8725 34.9362 28.271 34.5865C27.6835 34.2368 27.2359 33.7402 26.9281 33.0967V34.2298C26.9281 34.4816 26.8512 34.6844 26.6973 34.8383C26.5574 34.9922 26.3546 35.0691 26.0888 35.0691C25.823 35.0691 25.6132 34.9922 25.4593 34.8383C25.3055 34.6844 25.2285 34.4816 25.2285 34.2298V20.8847C25.2285 20.6469 25.3055 20.451 25.4593 20.2972C25.6132 20.1433 25.823 20.0663 26.0888 20.0663C26.3546 20.0663 26.5574 20.1433 26.6973 20.2972C26.8512 20.437 26.9281 20.6329 26.9281 20.8847V26.5081C27.2359 25.8646 27.6835 25.368 28.271 25.0183C28.8725 24.6686 29.572 24.4937 30.3693 24.4937ZM30.0336 33.7052C31.0268 33.7052 31.7962 33.3625 32.3417 32.677C32.8873 31.9776 33.16 31.0054 33.16 29.7604C33.16 28.5434 32.8873 27.5992 32.3417 26.9277C31.7962 26.2563 31.0268 25.9206 30.0336 25.9206C29.0404 25.9206 28.271 26.2563 27.7255 26.9277C27.1939 27.5992 26.9281 28.5574 26.9281 29.8024C26.9281 31.0474 27.1939 32.0126 27.7255 32.698C28.271 33.3695 29.0404 33.7052 30.0336 33.7052Z" fill="#5F30E2"/>
<path d="M37.9867 35.0691C37.735 35.0691 37.5251 34.9991 37.3573 34.8593C37.2034 34.7054 37.1265 34.4956 37.1265 34.2298V20.9057C37.1265 20.6399 37.2034 20.437 37.3573 20.2972C37.5251 20.1433 37.735 20.0663 37.9867 20.0663C38.2246 20.0663 38.4204 20.1433 38.5743 20.2972C38.7421 20.437 38.8261 20.6399 38.8261 20.9057V34.2298C38.8261 34.4956 38.7421 34.7054 38.5743 34.8593C38.4204 34.9991 38.2246 35.0691 37.9867 35.0691Z" fill="#5F30E2"/>
<path d="M49.4522 24.5357C49.718 24.5357 49.9209 24.6126 50.0607 24.7665C50.2146 24.9204 50.2916 25.1232 50.2916 25.375V34.2508C50.2916 34.4886 50.2146 34.6844 50.0607 34.8383C49.9209 34.9922 49.718 35.0691 49.4522 35.0691C49.2005 35.0691 48.9976 34.9991 48.8437 34.8593C48.7039 34.7054 48.6339 34.5095 48.6339 34.2717V33.2226C48.3122 33.8381 47.8575 34.3067 47.27 34.6284C46.6965 34.9502 46.046 35.1111 45.3186 35.1111C44.1016 35.1111 43.1854 34.7753 42.5699 34.1039C41.9544 33.4184 41.6466 32.4113 41.6466 31.0823V25.375C41.6466 25.1232 41.7236 24.9204 41.8774 24.7665C42.0313 24.6126 42.2411 24.5357 42.5069 24.5357C42.7727 24.5357 42.9755 24.6126 43.1154 24.7665C43.2693 24.9204 43.3462 25.1232 43.3462 25.375V31.0404C43.3462 31.9496 43.5281 32.6211 43.8918 33.0547C44.2555 33.4744 44.829 33.6842 45.6124 33.6842C46.5076 33.6842 47.2281 33.3975 47.7736 32.8239C48.3192 32.2364 48.5919 31.467 48.5919 30.5158V25.375C48.5919 25.1232 48.6689 24.9204 48.8228 24.7665C48.9766 24.6126 49.1865 24.5357 49.4522 24.5357Z" fill="#5F30E2"/>
<path d="M61.0463 32.5931C61.2001 32.5931 61.333 32.6561 61.4449 32.782C61.5568 32.9079 61.6128 33.0687 61.6128 33.2646C61.6128 33.6143 61.368 33.936 60.8784 34.2298C60.3748 34.5235 59.8432 34.7473 59.2837 34.9012C58.7242 35.0411 58.1786 35.1111 57.647 35.1111C56.0663 35.1111 54.8144 34.6424 53.8911 33.7052C52.9818 32.768 52.5272 31.474 52.5272 29.8234C52.5272 28.7742 52.7301 27.851 53.1357 27.0536C53.5414 26.2423 54.1079 25.6128 54.8353 25.1652C55.5767 24.7175 56.416 24.4937 57.3533 24.4937C58.6822 24.4937 59.7383 24.9274 60.5217 25.7947C61.305 26.662 61.6967 27.837 61.6967 29.3198C61.6967 29.5996 61.6408 29.8024 61.5289 29.9283C61.417 30.0542 61.2351 30.1171 60.9833 30.1171H54.2268C54.3527 32.5232 55.4928 33.7262 57.647 33.7262C58.1926 33.7262 58.6612 33.6562 59.0529 33.5164C59.4446 33.3625 59.8642 33.1596 60.3119 32.9079C60.6756 32.698 60.9204 32.5931 61.0463 32.5931ZM57.3743 25.8156C56.479 25.8156 55.7586 26.0954 55.213 26.655C54.6815 27.2145 54.3667 28.0049 54.2688 29.026H60.2069C60.179 27.9909 59.9202 27.2005 59.4306 26.655C58.941 26.0954 58.2555 25.8156 57.3743 25.8156Z" fill="#5F30E2"/>
<path d="M69.027 24.4937C69.9222 24.4937 70.7126 24.7175 71.398 25.1652C72.0835 25.6128 72.615 26.2423 72.9927 27.0536C73.3704 27.851 73.5592 28.7812 73.5592 29.8444C73.5592 30.9075 73.3704 31.8377 72.9927 32.6351C72.615 33.4184 72.0835 34.0269 71.398 34.4606C70.7266 34.8942 69.9362 35.1111 69.027 35.1111C68.2296 35.1111 67.5302 34.9362 66.9287 34.5865C66.3411 34.2368 65.8935 33.7402 65.5858 33.0967V38.0277C65.5858 38.2795 65.5088 38.4753 65.355 38.6152C65.2151 38.7691 65.0122 38.846 64.7465 38.846C64.4807 38.846 64.2708 38.7691 64.117 38.6152C63.9631 38.4613 63.8862 38.2655 63.8862 38.0277V25.375C63.8862 25.1232 63.9631 24.9204 64.117 24.7665C64.2708 24.6126 64.4807 24.5357 64.7465 24.5357C65.0122 24.5357 65.2151 24.6126 65.355 24.7665C65.5088 24.9204 65.5858 25.1232 65.5858 25.375V26.5081C65.8935 25.8646 66.3411 25.368 66.9287 25.0183C67.5302 24.6686 68.2296 24.4937 69.027 24.4937ZM68.6912 33.7052C69.6844 33.7052 70.4538 33.3695 70.9993 32.698C71.5449 32.0266 71.8177 31.0754 71.8177 29.8444C71.8177 28.6134 71.5449 27.6551 70.9993 26.9697C70.4538 26.2703 69.6844 25.9206 68.6912 25.9206C67.698 25.9206 66.9287 26.2563 66.3831 26.9277C65.8516 27.5992 65.5858 28.5574 65.5858 29.8024C65.5858 31.0474 65.8516 32.0126 66.3831 32.698C66.9287 33.3695 67.698 33.7052 68.6912 33.7052Z" fill="#5F30E2"/>
<path d="M80.841 24.5357C81.4285 24.4937 81.7222 24.7315 81.7222 25.2491C81.7222 25.4729 81.6593 25.6548 81.5334 25.7947C81.4075 25.9206 81.1907 25.9975 80.8829 26.0255L80.2534 26.0884C79.3162 26.1724 78.6168 26.5081 78.1552 27.0956C77.7075 27.6691 77.4837 28.3476 77.4837 29.1309V34.2298C77.4837 34.5095 77.4068 34.7194 77.2529 34.8593C77.099 34.9991 76.8962 35.0691 76.6444 35.0691C76.3926 35.0691 76.1828 34.9991 76.0149 34.8593C75.861 34.7054 75.7841 34.4956 75.7841 34.2298V25.375C75.7841 25.1092 75.868 24.9064 76.0359 24.7665C76.2038 24.6126 76.4066 24.5357 76.6444 24.5357C76.8682 24.5357 77.057 24.6126 77.2109 24.7665C77.3648 24.9064 77.4417 25.1022 77.4417 25.354V26.5291C77.7355 25.9136 78.1482 25.445 78.6797 25.1232C79.2253 24.8015 79.8478 24.6126 80.5472 24.5567L80.841 24.5357Z" fill="#5F30E2"/>
<path d="M83.7269 35.0691C83.4751 35.0691 83.2653 34.9991 83.0974 34.8593C82.9436 34.7054 82.8666 34.4956 82.8666 34.2298V25.375C82.8666 25.1092 82.9436 24.9064 83.0974 24.7665C83.2653 24.6126 83.4751 24.5357 83.7269 24.5357C83.9787 24.5357 84.1815 24.6126 84.3354 24.7665C84.4893 24.9064 84.5662 25.1092 84.5662 25.375V34.2298C84.5662 34.5095 84.4893 34.7194 84.3354 34.8593C84.1815 34.9991 83.9787 35.0691 83.7269 35.0691ZM83.7269 22.3325C83.3912 22.3325 83.1184 22.2346 82.9086 22.0387C82.6988 21.8429 82.5938 21.5841 82.5938 21.2624C82.5938 20.9546 82.6988 20.7028 82.9086 20.507C83.1184 20.3111 83.3912 20.2132 83.7269 20.2132C84.0626 20.2132 84.3354 20.3111 84.5453 20.507C84.7551 20.7028 84.86 20.9546 84.86 21.2624C84.86 21.5841 84.7551 21.8429 84.5453 22.0387C84.3354 22.2346 84.0626 22.3325 83.7269 22.3325Z" fill="#5F30E2"/>
<path d="M92.5695 24.4937C95.0175 24.4937 96.2416 25.8436 96.2416 28.5434V34.2298C96.2416 34.4956 96.1646 34.7054 96.0107 34.8593C95.8709 34.9991 95.668 35.0691 95.4022 35.0691C95.1365 35.0691 94.9266 34.9991 94.7728 34.8593C94.6189 34.7054 94.5419 34.4956 94.5419 34.2298V28.6483C94.5419 27.6971 94.3531 27.0047 93.9754 26.571C93.6117 26.1374 93.0242 25.9206 92.2128 25.9206C91.2756 25.9206 90.5272 26.2073 89.9677 26.7809C89.4081 27.3544 89.1284 28.1308 89.1284 29.11V34.2298C89.1284 34.4956 89.0514 34.7054 88.8976 34.8593C88.7577 34.9991 88.5548 35.0691 88.289 35.0691C88.0233 35.0691 87.8134 34.9991 87.6596 34.8593C87.5057 34.7054 87.4288 34.4956 87.4288 34.2298V25.375C87.4288 25.1232 87.5057 24.9204 87.6596 24.7665C87.8134 24.6126 88.0233 24.5357 88.289 24.5357C88.5408 24.5357 88.7367 24.6126 88.8766 24.7665C89.0304 24.9204 89.1074 25.1162 89.1074 25.354V26.4242C89.4431 25.7947 89.9117 25.3191 90.5132 24.9973C91.1147 24.6616 91.8002 24.4937 92.5695 24.4937Z" fill="#5F30E2"/>
<path d="M103.761 33.7262C104.251 33.7682 104.495 33.992 104.495 34.3976C104.495 34.6354 104.404 34.8173 104.223 34.9432C104.055 35.0551 103.796 35.0971 103.446 35.0691L102.88 35.0271C101.761 34.9432 100.935 34.6075 100.404 34.0199C99.8721 33.4324 99.6064 32.5442 99.6064 31.3551V26.0884H98.2005C97.9627 26.0884 97.7738 26.0325 97.634 25.9206C97.5081 25.7947 97.4451 25.6338 97.4451 25.438C97.4451 25.2281 97.5081 25.0603 97.634 24.9344C97.7738 24.8085 97.9627 24.7455 98.2005 24.7455H99.6064V22.3745C99.6064 22.1087 99.6833 21.9058 99.8372 21.766C99.991 21.6121 100.201 21.5351 100.467 21.5351C100.718 21.5351 100.921 21.6121 101.075 21.766C101.229 21.9058 101.306 22.1087 101.306 22.3745V24.7455H103.635C103.859 24.7455 104.034 24.8085 104.16 24.9344C104.3 25.0603 104.369 25.2281 104.369 25.438C104.369 25.6338 104.3 25.7947 104.16 25.9206C104.034 26.0325 103.859 26.0884 103.635 26.0884H101.306V31.4391C101.306 32.2084 101.46 32.768 101.768 33.1177C102.089 33.4534 102.565 33.6423 103.194 33.6842L103.761 33.7262Z" fill="#5F30E2"/>
</svg>
